HIERARCHY
ROOT SpineBase
{
  OFFSET 0.000000 0.000000 0.000000
  CHANNELS 6 Xposition Yposition Zposition Zrotation Xrotation Yrotation
  JOINT SpineMid
  {
    OFFSET -0.000000 32.709295 0.000000
    CHANNELS 3 Zrotation Xrotation Yrotation
    JOINT SpineShoulder
    {
      OFFSET 0.062576 24.215559 -0.979377
      CHANNELS 3 Zrotation Xrotation Yrotation
      JOINT Neck
      {
        OFFSET 0.041717 8.001323 -0.682625
        CHANNELS 3 Zrotation Xrotation Yrotation
        JOINT Head
        {
          OFFSET 5.355966 12.133404 4.991511
          CHANNELS 3 Zrotation Xrotation Yrotation
          End Site
          {
            OFFSET 0 0 0
          }
        }
      }
      JOINT ShoulderLeft
      {
        OFFSET -11.113944 -2.625373 -12.048629
        CHANNELS 3 Zrotation Xrotation Yrotation
        JOINT ElbowLeft
        {
          OFFSET -7.391429 -25.034506 -7.134984
          CHANNELS 3 Zrotation Xrotation Yrotation
          JOINT WristLeft
          {
            OFFSET 1.935983 -21.359152 -5.345744
            CHANNELS 3 Zrotation Xrotation Yrotation
            JOINT HandLeft
            {
              OFFSET 1.780821 -8.664579 2.182886
              CHANNELS 3 Zrotation Xrotation Yrotation
              JOINT HandTipLeft
              {
                OFFSET 0.189848 -8.329470 -0.549479
                CHANNELS 3 Zrotation Xrotation Yrotation
                End Site
                {
                  OFFSET 0 0 0
                }
              }
              JOINT ThumbLeft
              {
                OFFSET 4.511962 2.202952 3.398475
                CHANNELS 3 Zrotation Xrotation Yrotation
                End Site
                {
                  OFFSET 0 0 0
                }
              }
            }
          }
        }
      }
      JOINT ShoulderRight
      {
        OFFSET 13.289955 -5.578939 9.207139
        CHANNELS 3 Zrotation Xrotation Yrotation
        JOINT ElbowRight
        {
          OFFSET 2.455245 -26.055237 2.891083
          CHANNELS 3 Zrotation Xrotation Yrotation
          JOINT WristRight
          {
            OFFSET 0.651646 -26.380383 -3.181254
            CHANNELS 3 Zrotation Xrotation Yrotation
            JOINT HandRight
            {
              OFFSET 0.057026 -8.204786 0.006123
              CHANNELS 3 Zrotation Xrotation Yrotation
              JOINT HandTipRight
              {
                OFFSET -1.278645 -7.320787 -0.927678
                CHANNELS 3 Zrotation Xrotation Yrotation
                End Site
                {
                  OFFSET 0 0 0
                }
              }
              JOINT ThumbRight
              {
                OFFSET -2.105783 -4.390136 -1.905549
                CHANNELS 3 Zrotation Xrotation Yrotation
                End Site
                {
                  OFFSET 0 0 0
                }
              }
            }
          }
        }
      }
    }
  }
  JOINT HipLeft
  {
    OFFSET -5.147270 1.629970 -7.963834
    CHANNELS 3 Zrotation Xrotation Yrotation
    JOINT KneeLeft
    {
      OFFSET -12.540818 -35.512219 -4.875297
      CHANNELS 3 Zrotation Xrotation Yrotation
      JOINT AnkleLeft
      {
        OFFSET -9.318071 -34.415170 3.609689
        CHANNELS 3 Zrotation Xrotation Yrotation
        JOINT FootLeft
        {
          OFFSET -1.531595 -7.207244 -8.117755
          CHANNELS 3 Zrotation Xrotation Yrotation
          End Site
          {
            OFFSET 0 0 0
          }
        }
      }
    }
  }
  JOINT HipRight
  {
    OFFSET 5.791436 -0.002298 0.669711
    CHANNELS 3 Zrotation Xrotation Yrotation
    JOINT KneeRight
    {
      OFFSET -6.455647 -37.002888 2.926675
      CHANNELS 3 Zrotation Xrotation Yrotation
      JOINT AnkleRight
      {
        OFFSET -6.752753 -36.216752 12.974060
        CHANNELS 3 Zrotation Xrotation Yrotation
        JOINT FootRight
        {
          OFFSET 2.118263 -8.273218 -3.601646
          CHANNELS 3 Zrotation Xrotation Yrotation
          End Site
          {
            OFFSET 0 0 0
          }
        }
      }
    }
  }
}
MOTION
Frames: 5
Frame Time: 0.033333
-30.814825 81.570277 345.356352 0.000000 0.000000 -38.282818 -0.000000 0.000000 38.282818 -0.000000 0.000000 0.000000 -0.000000 0.000000 0.000000 0.000000 0.000000 0.000000 -0.000000 0.000000 0.000000 -0.000000 0.000000 0.000000 -0.000000 0.000000 0.000000 -0.000000 0.000000 0.000000 0.000000 0.000000 0.000000 0.000000 0.000000 0.000000 -0.000000 0.000000 0.000000 -0.000000 0.000000 0.000000 -0.000000 0.000000 0.000000 -0.000000 0.000000 0.000000 0.000000 0.000000 0.000000 0.000000 0.000000 0.000000 -0.000000 0.000000 38.282818 -0.000000 0.000000 0.000000 -0.000000 0.000000 0.000000 0.000000 0.000000 0.000000 -0.000000 0.000000 38.282818 -0.000000 0.000000 0.000000 -0.000000 0.000000 0.000000 0.000000 0.000000 0.000000
-30.797804 81.551122 345.350996 0.059730 -0.090769 -38.192637 -0.103067 0.034408 38.192716 -0.000000 0.000000 0.000000 -0.000000 0.000000 0.000000 0.000000 0.000000 0.000000 -0.000000 0.000000 0.000000 -0.000000 0.000000 0.000000 -0.000000 0.000000 0.000000 0.381486 1.336195 0.000841 0.000000 0.000000 0.000000 0.000000 0.000000 0.000000 -0.000000 0.000000 0.000000 -0.000000 0.000000 0.000000 -1.287685 0.294870 0.004403 2.547371 0.833373 -0.360642 0.000000 0.000000 0.000000 0.000000 0.000000 0.000000 -0.103067 0.034408 38.192716 -0.000000 0.000000 0.000000 -0.000000 0.000000 0.000000 0.000000 0.000000 0.000000 -0.103067 0.034408 38.192716 -0.000000 0.000000 0.000000 -1.937269 -0.115312 0.815849 0.000000 0.000000 0.000000
-30.772316 81.527453 345.363807 0.108867 -0.172723 -38.101915 -0.192250 0.068740 38.102194 -0.000000 0.000000 0.000000 -0.000000 0.000000 0.000000 0.000000 0.000000 0.000000 -0.000000 0.000000 0.000000 -0.000000 0.000000 0.000000 -0.914182 -0.023409 -0.235689 1.690551 2.262978 0.218853 0.000000 0.000000 0.000000 0.000000 0.000000 0.000000 -0.000000 0.000000 0.000000 -0.000000 0.000000 0.000000 -2.213800 0.404606 0.008979 4.459595 1.602267 -0.652804 0.000000 0.000000 0.000000 0.000000 0.000000 0.000000 -0.192250 0.068740 38.102194 -0.000000 0.000000 0.000000 -0.000000 0.000000 0.000000 0.000000 0.000000 0.000000 -0.192250 0.068740 38.102194 -0.000000 0.000000 0.000000 -3.177610 0.156509 1.437381 0.000000 0.000000 0.000000
-30.738363 81.499271 345.394787 0.147427 -0.245874 -38.010835 -0.267569 0.102935 38.011392 -0.000000 0.000000 0.000000 -0.000000 0.000000 0.000000 0.000000 0.000000 0.000000 -0.000000 0.000000 0.000000 -0.000000 0.000000 0.000000 -1.263372 0.274059 -0.259693 2.464314 2.420703 0.224406 0.000000 0.000000 0.000000 0.000000 0.000000 0.000000 -0.000000 0.000000 0.000000 -0.000000 0.000000 0.000000 -2.773201 0.326802 0.008113 5.741775 2.324390 -0.884886 0.000000 0.000000 0.000000 0.000000 0.000000 0.000000 -0.267569 0.102935 38.011392 -0.000000 0.000000 0.000000 -0.000000 0.000000 0.000000 0.000000 0.000000 0.000000 -0.267569 0.102935 38.011392 -0.000000 0.000000 0.000000 -3.746275 0.826865 1.879901 0.000000 0.000000 0.000000
-30.695945 81.466574 345.443933 0.175424 -0.310236 -37.919578 -0.329045 0.136927 37.920446 -0.000000 0.000000 0.000000 -0.000000 0.000000 0.000000 0.000000 0.000000 0.000000 0.314231 -0.767506 0.139535 -1.030857 0.215781 0.000332 -0.821660 1.333376 -0.337203 3.194010 1.919456 0.175186 0.000000 0.000000 0.000000 0.000000 0.000000 0.000000 -0.000000 0.000000 0.000000 -0.000000 0.000000 0.000000 -2.961219 0.059048 -0.000274 6.395974 3.012439 -1.059130 0.000000 0.000000 0.000000 0.000000 0.000000 0.000000 -0.329045 0.136927 37.920446 -0.000000 0.000000 0.000000 -0.000000 0.000000 0.000000 0.000000 0.000000 0.000000 -0.329045 0.136927 37.920446 -0.000000 0.000000 0.000000 -3.656991 1.905313 2.143031 0.000000 0.000000 0.000000
